<svg width="154" height="60" viewBox="0 0 154 60" fill="none" xmlns="http://www.w3.org/2000/svg">
<path d="M46.72 23V14.6H49.498C50.078 14.6 50.622 14.71 51.13 14.93C51.638 15.146 52.084 15.448 52.468 15.836C52.852 16.22 53.152 16.666 53.368 17.174C53.588 17.678 53.698 18.22 53.698 18.8C53.698 19.38 53.588 19.924 53.368 20.432C53.152 20.936 52.852 21.382 52.468 21.77C52.084 22.154 51.638 22.456 51.13 22.676C50.622 22.892 50.078 23 49.498 23H46.72ZM47.56 22.16H49.498C49.962 22.16 50.396 22.074 50.8 21.902C51.208 21.726 51.566 21.484 51.874 21.176C52.182 20.868 52.422 20.512 52.594 20.108C52.77 19.7 52.858 19.264 52.858 18.8C52.858 18.336 52.77 17.902 52.594 17.498C52.422 17.09 52.18 16.732 51.868 16.424C51.56 16.116 51.204 15.876 50.8 15.704C50.396 15.528 49.962 15.44 49.498 15.44H47.56V22.16ZM57.3405 23.156C56.7885 23.156 56.2845 23.014 55.8285 22.73C55.3765 22.446 55.0145 22.066 54.7425 21.59C54.4745 21.11 54.3405 20.58 54.3405 20C54.3405 19.56 54.4185 19.15 54.5745 18.77C54.7305 18.386 54.9445 18.05 55.2165 17.762C55.4925 17.47 55.8125 17.242 56.1765 17.078C56.5405 16.914 56.9285 16.832 57.3405 16.832C57.8925 16.832 58.3945 16.974 58.8465 17.258C59.3025 17.542 59.6645 17.924 59.9325 18.404C60.2045 18.884 60.3405 19.416 60.3405 20C60.3405 20.436 60.2625 20.844 60.1065 21.224C59.9505 21.604 59.7345 21.94 59.4585 22.232C59.1865 22.52 58.8685 22.746 58.5045 22.91C58.1445 23.074 57.7565 23.156 57.3405 23.156ZM57.3405 22.316C57.7485 22.316 58.1145 22.21 58.4385 21.998C58.7665 21.782 59.0245 21.498 59.2125 21.146C59.4045 20.794 59.5005 20.412 59.5005 20C59.5005 19.58 59.4045 19.194 59.2125 18.842C59.0205 18.486 58.7605 18.202 58.4325 17.99C58.1085 17.778 57.7445 17.672 57.3405 17.672C56.9325 17.672 56.5645 17.78 56.2365 17.996C55.9125 18.208 55.6545 18.49 55.4625 18.842C55.2745 19.194 55.1805 19.58 55.1805 20C55.1805 20.432 55.2785 20.824 55.4745 21.176C55.6705 21.524 55.9325 21.802 56.2605 22.01C56.5885 22.214 56.9485 22.316 57.3405 22.316ZM63.6129 23H62.7489L60.7389 17H61.5609L63.1929 21.836L64.8129 17H65.7009L67.3209 21.836L68.9409 17H69.7689L67.7589 23H66.8889L65.2449 18.116L63.6129 23ZM75.9989 19.286V23H75.1589V19.454C75.1589 19.126 75.0789 18.828 74.9189 18.56C74.7589 18.292 74.5449 18.078 74.2769 17.918C74.0089 17.758 73.7109 17.678 73.3829 17.678C73.0589 17.678 72.7609 17.758 72.4889 17.918C72.2209 18.078 72.0069 18.292 71.8469 18.56C71.6869 18.828 71.6069 19.126 71.6069 19.454V23H70.7669V17H71.6069V17.828C71.8189 17.524 72.0949 17.282 72.4349 17.102C72.7749 16.922 73.1449 16.832 73.5449 16.832C73.9969 16.832 74.4089 16.942 74.7809 17.162C75.1529 17.382 75.4489 17.678 75.6689 18.05C75.8889 18.422 75.9989 18.834 75.9989 19.286ZM77.2825 23V14H78.1225V23H77.2825ZM82.1608 23.156C81.6088 23.156 81.1048 23.014 80.6488 22.73C80.1968 22.446 79.8348 22.066 79.5628 21.59C79.2948 21.11 79.1608 20.58 79.1608 20C79.1608 19.56 79.2388 19.15 79.3948 18.77C79.5508 18.386 79.7648 18.05 80.0368 17.762C80.3128 17.47 80.6328 17.242 80.9968 17.078C81.3608 16.914 81.7488 16.832 82.1608 16.832C82.7128 16.832 83.2148 16.974 83.6668 17.258C84.1228 17.542 84.4848 17.924 84.7528 18.404C85.0248 18.884 85.1608 19.416 85.1608 20C85.1608 20.436 85.0828 20.844 84.9268 21.224C84.7708 21.604 84.5548 21.94 84.2788 22.232C84.0068 22.52 83.6888 22.746 83.3248 22.91C82.9648 23.074 82.5768 23.156 82.1608 23.156ZM82.1608 22.316C82.5688 22.316 82.9348 22.21 83.2588 21.998C83.5868 21.782 83.8448 21.498 84.0328 21.146C84.2248 20.794 84.3208 20.412 84.3208 20C84.3208 19.58 84.2248 19.194 84.0328 18.842C83.8408 18.486 83.5808 18.202 83.2528 17.99C82.9288 17.778 82.5648 17.672 82.1608 17.672C81.7528 17.672 81.3848 17.78 81.0568 17.996C80.7328 18.208 80.4748 18.49 80.2828 18.842C80.0948 19.194 80.0008 19.58 80.0008 20C80.0008 20.432 80.0988 20.824 80.2948 21.176C80.4908 21.524 80.7528 21.802 81.0808 22.01C81.4088 22.214 81.7688 22.316 82.1608 22.316ZM91.0504 17H91.8904V23H91.0504L91.0204 21.884C90.8244 22.264 90.5504 22.572 90.1984 22.808C89.8464 23.04 89.4264 23.156 88.9384 23.156C88.4984 23.156 88.0864 23.074 87.7024 22.91C87.3184 22.742 86.9804 22.512 86.6884 22.22C86.3964 21.928 86.1684 21.59 86.0044 21.206C85.8404 20.822 85.7584 20.41 85.7584 19.97C85.7584 19.538 85.8384 19.132 85.9984 18.752C86.1624 18.372 86.3864 18.038 86.6704 17.75C86.9584 17.462 87.2904 17.238 87.6664 17.078C88.0464 16.914 88.4524 16.832 88.8844 16.832C89.3844 16.832 89.8204 16.952 90.1924 17.192C90.5644 17.428 90.8604 17.738 91.0804 18.122L91.0504 17ZM88.9204 22.34C89.3484 22.34 89.7164 22.236 90.0244 22.028C90.3324 21.816 90.5684 21.532 90.7324 21.176C90.9004 20.82 90.9844 20.428 90.9844 20C90.9844 19.56 90.9004 19.164 90.7324 18.812C90.5644 18.456 90.3264 18.174 90.0184 17.966C89.7104 17.758 89.3444 17.654 88.9204 17.654C88.4964 17.654 88.1084 17.76 87.7564 17.972C87.4084 18.18 87.1304 18.462 86.9224 18.818C86.7184 19.174 86.6164 19.568 86.6164 20C86.6164 20.436 86.7224 20.832 86.9344 21.188C87.1464 21.54 87.4264 21.82 87.7744 22.028C88.1264 22.236 88.5084 22.34 88.9204 22.34ZM97.9119 14H98.7519V23H97.9119V21.878C97.7039 22.262 97.4179 22.572 97.0539 22.808C96.6939 23.04 96.2659 23.156 95.7699 23.156C95.3339 23.156 94.9259 23.074 94.5459 22.91C94.1659 22.746 93.8299 22.52 93.5379 22.232C93.2499 21.94 93.0239 21.604 92.8599 21.224C92.6959 20.844 92.6139 20.436 92.6139 20C92.6139 19.564 92.6959 19.156 92.8599 18.776C93.0239 18.392 93.2499 18.056 93.5379 17.768C93.8299 17.476 94.1659 17.248 94.5459 17.084C94.9259 16.92 95.3339 16.838 95.7699 16.838C96.2659 16.838 96.6939 16.956 97.0539 17.192C97.4179 17.424 97.7039 17.73 97.9119 18.11V14ZM95.7759 22.34C96.2039 22.34 96.5719 22.236 96.8799 22.028C97.1879 21.816 97.4239 21.532 97.5879 21.176C97.7559 20.82 97.8399 20.428 97.8399 20C97.8399 19.56 97.7559 19.164 97.5879 18.812C97.4199 18.456 97.1819 18.174 96.8739 17.966C96.5659 17.758 96.1999 17.654 95.7759 17.654C95.3519 17.654 94.9659 17.76 94.6179 17.972C94.2699 18.18 93.9919 18.462 93.7839 18.818C93.5759 19.174 93.4719 19.568 93.4719 20C93.4719 20.436 93.5779 20.832 93.7899 21.188C94.0019 21.54 94.2819 21.82 94.6299 22.028C94.9819 22.236 95.3639 22.34 95.7759 22.34ZM105.715 23.156C105.163 23.156 104.659 23.014 104.203 22.73C103.751 22.446 103.389 22.066 103.117 21.59C102.849 21.11 102.715 20.58 102.715 20C102.715 19.56 102.793 19.15 102.949 18.77C103.105 18.386 103.319 18.05 103.591 17.762C103.867 17.47 104.187 17.242 104.551 17.078C104.915 16.914 105.303 16.832 105.715 16.832C106.267 16.832 106.769 16.974 107.221 17.258C107.677 17.542 108.039 17.924 108.307 18.404C108.579 18.884 108.715 19.416 108.715 20C108.715 20.436 108.637 20.844 108.481 21.224C108.325 21.604 108.109 21.94 107.833 22.232C107.561 22.52 107.243 22.746 106.879 22.91C106.519 23.074 106.131 23.156 105.715 23.156ZM105.715 22.316C106.123 22.316 106.489 22.21 106.813 21.998C107.141 21.782 107.399 21.498 107.587 21.146C107.779 20.794 107.875 20.412 107.875 20C107.875 19.58 107.779 19.194 107.587 18.842C107.395 18.486 107.135 18.202 106.807 17.99C106.483 17.778 106.119 17.672 105.715 17.672C105.307 17.672 104.939 17.78 104.611 17.996C104.287 18.208 104.029 18.49 103.837 18.842C103.649 19.194 103.555 19.58 103.555 20C103.555 20.432 103.653 20.824 103.849 21.176C104.045 21.524 104.307 21.802 104.635 22.01C104.963 22.214 105.323 22.316 105.715 22.316ZM114.964 19.286V23H114.124V19.454C114.124 19.126 114.044 18.828 113.884 18.56C113.724 18.292 113.51 18.078 113.242 17.918C112.974 17.758 112.676 17.678 112.348 17.678C112.024 17.678 111.726 17.758 111.454 17.918C111.186 18.078 110.972 18.292 110.812 18.56C110.652 18.828 110.572 19.126 110.572 19.454V23H109.732V17H110.572V17.828C110.784 17.524 111.06 17.282 111.4 17.102C111.74 16.922 112.11 16.832 112.51 16.832C112.962 16.832 113.374 16.942 113.746 17.162C114.118 17.382 114.414 17.678 114.634 18.05C114.854 18.422 114.964 18.834 114.964 19.286ZM122.114 17.84H120.68L120.674 23H119.834L119.84 17.84H118.754V17H119.84L119.834 15.116H120.674L120.68 17H122.114V17.84ZM128.417 19.286V23H127.577V19.454C127.577 19.126 127.497 18.828 127.337 18.56C127.177 18.292 126.963 18.078 126.695 17.918C126.427 17.758 126.129 17.678 125.801 17.678C125.477 17.678 125.179 17.758 124.907 17.918C124.639 18.078 124.425 18.292 124.265 18.56C124.105 18.828 124.025 19.126 124.025 19.454V23H123.185V14H124.025V17.828C124.237 17.524 124.513 17.282 124.853 17.102C125.193 16.922 125.563 16.832 125.963 16.832C126.415 16.832 126.827 16.942 127.199 17.162C127.571 17.382 127.867 17.678 128.087 18.05C128.307 18.422 128.417 18.834 128.417 19.286ZM132.141 23.156C131.589 23.156 131.085 23.014 130.629 22.73C130.177 22.446 129.815 22.066 129.543 21.59C129.275 21.11 129.141 20.58 129.141 20C129.141 19.56 129.219 19.15 129.375 18.77C129.531 18.386 129.745 18.05 130.017 17.762C130.293 17.47 130.613 17.242 130.977 17.078C131.341 16.914 131.729 16.832 132.141 16.832C132.585 16.832 132.993 16.92 133.365 17.096C133.741 17.272 134.063 17.518 134.331 17.834C134.603 18.15 134.807 18.52 134.943 18.944C135.083 19.368 135.141 19.826 135.117 20.318H130.029C130.077 20.698 130.197 21.038 130.389 21.338C130.585 21.638 130.833 21.876 131.133 22.052C131.437 22.224 131.773 22.312 132.141 22.316C132.541 22.316 132.901 22.212 133.221 22.004C133.545 21.796 133.805 21.51 134.001 21.146L134.853 21.344C134.613 21.876 134.251 22.312 133.767 22.652C133.283 22.988 132.741 23.156 132.141 23.156ZM130.005 19.64H134.271C134.243 19.268 134.129 18.928 133.929 18.62C133.733 18.308 133.479 18.06 133.167 17.876C132.855 17.688 132.513 17.594 132.141 17.594C131.769 17.594 131.429 17.686 131.121 17.87C130.813 18.05 130.561 18.296 130.365 18.608C130.169 18.916 130.049 19.26 130.005 19.64Z" fill="white" fill-opacity="0.8"/>
<path d="M51.292 30.4H53.821L58.402 43H56.071L55.261 40.768H49.861L49.051 43H46.72L51.292 30.4ZM50.662 38.572H54.451L52.552 33.379L50.662 38.572ZM61.774 47.5H59.578V34H61.774V35.143C62.068 34.735 62.428 34.405 62.854 34.153C63.286 33.895 63.79 33.766 64.366 33.766C65.026 33.766 65.641 33.889 66.211 34.135C66.781 34.381 67.282 34.723 67.714 35.161C68.152 35.593 68.491 36.094 68.731 36.664C68.977 37.234 69.1 37.846 69.1 38.5C69.1 39.154 68.977 39.769 68.731 40.345C68.491 40.921 68.152 41.428 67.714 41.866C67.282 42.298 66.781 42.637 66.211 42.883C65.641 43.129 65.026 43.252 64.366 43.252C63.79 43.252 63.286 43.126 62.854 42.874C62.428 42.616 62.068 42.283 61.774 41.875V47.5ZM64.339 35.881C63.883 35.881 63.475 36.001 63.115 36.241C62.755 36.475 62.473 36.79 62.269 37.186C62.065 37.582 61.963 38.02 61.963 38.5C61.963 38.98 62.065 39.421 62.269 39.823C62.473 40.219 62.755 40.537 63.115 40.777C63.475 41.011 63.883 41.128 64.339 41.128C64.801 41.128 65.224 41.011 65.608 40.777C65.992 40.543 66.298 40.228 66.526 39.832C66.754 39.43 66.868 38.986 66.868 38.5C66.868 38.02 66.754 37.582 66.526 37.186C66.298 36.79 65.992 36.475 65.608 36.241C65.23 36.001 64.807 35.881 64.339 35.881ZM72.7076 47.5H70.5116V34H72.7076V35.143C73.0016 34.735 73.3616 34.405 73.7876 34.153C74.2196 33.895 74.7236 33.766 75.2996 33.766C75.9596 33.766 76.5746 33.889 77.1446 34.135C77.7146 34.381 78.2156 34.723 78.6476 35.161C79.0856 35.593 79.4246 36.094 79.6646 36.664C79.9106 37.234 80.0336 37.846 80.0336 38.5C80.0336 39.154 79.9106 39.769 79.6646 40.345C79.4246 40.921 79.0856 41.428 78.6476 41.866C78.2156 42.298 77.7146 42.637 77.1446 42.883C76.5746 43.129 75.9596 43.252 75.2996 43.252C74.7236 43.252 74.2196 43.126 73.7876 42.874C73.3616 42.616 73.0016 42.283 72.7076 41.875V47.5ZM75.2726 35.881C74.8166 35.881 74.4086 36.001 74.0486 36.241C73.6886 36.475 73.4066 36.79 73.2026 37.186C72.9986 37.582 72.8966 38.02 72.8966 38.5C72.8966 38.98 72.9986 39.421 73.2026 39.823C73.4066 40.219 73.6886 40.537 74.0486 40.777C74.4086 41.011 74.8166 41.128 75.2726 41.128C75.7346 41.128 76.1576 41.011 76.5416 40.777C76.9256 40.543 77.2316 40.228 77.4596 39.832C77.6876 39.43 77.8016 38.986 77.8016 38.5C77.8016 38.02 77.6876 37.582 77.4596 37.186C77.2316 36.79 76.9256 36.475 76.5416 36.241C76.1636 36.001 75.7406 35.881 75.2726 35.881ZM88.6354 43.162C88.1674 43.132 87.7144 43.039 87.2764 42.883C86.8444 42.721 86.4604 42.502 86.1244 42.226C85.7884 41.95 85.5304 41.62 85.3504 41.236L87.2044 40.444C87.2764 40.564 87.3934 40.693 87.5554 40.831C87.7174 40.963 87.9094 41.074 88.1314 41.164C88.3594 41.254 88.6084 41.299 88.8784 41.299C89.1064 41.299 89.3224 41.269 89.5264 41.209C89.7364 41.143 89.9044 41.044 90.0304 40.912C90.1624 40.78 90.2284 40.609 90.2284 40.399C90.2284 40.177 90.1504 40.006 89.9944 39.886C89.8444 39.76 89.6524 39.667 89.4184 39.607C89.1904 39.541 88.9684 39.481 88.7524 39.427C88.1824 39.313 87.6514 39.136 87.1594 38.896C86.6734 38.656 86.2804 38.347 85.9804 37.969C85.6864 37.585 85.5394 37.123 85.5394 36.583C85.5394 35.989 85.6954 35.476 86.0074 35.044C86.3254 34.612 86.7364 34.279 87.2404 34.045C87.7504 33.811 88.2994 33.694 88.8874 33.694C89.6014 33.694 90.2554 33.844 90.8494 34.144C91.4494 34.438 91.9234 34.855 92.2714 35.395L90.5344 36.421C90.4504 36.277 90.3334 36.145 90.1834 36.025C90.0334 35.899 89.8624 35.797 89.6704 35.719C89.4784 35.635 89.2774 35.587 89.0674 35.575C88.7974 35.563 88.5514 35.587 88.3294 35.647C88.1074 35.707 87.9274 35.809 87.7894 35.953C87.6574 36.097 87.5914 36.289 87.5914 36.529C87.5914 36.757 87.6814 36.928 87.8614 37.042C88.0414 37.15 88.2574 37.234 88.5094 37.294C88.7674 37.354 89.0134 37.42 89.2474 37.492C89.7754 37.666 90.2704 37.879 90.7324 38.131C91.2004 38.383 91.5754 38.692 91.8574 39.058C92.1394 39.424 92.2744 39.862 92.2624 40.372C92.2624 40.954 92.0884 41.464 91.7404 41.902C91.3924 42.334 90.9424 42.664 90.3904 42.892C89.8444 43.12 89.2594 43.21 88.6354 43.162ZM98.6267 36.196H96.8807V43H94.6847V36.196H93.3527V34H94.6847V31.174H96.8807V34H98.6267V36.196ZM104.003 43.234C103.175 43.234 102.419 43.021 101.735 42.595C101.057 42.169 100.514 41.599 100.106 40.885C99.7039 40.165 99.5029 39.37 99.5029 38.5C99.5029 37.84 99.6199 37.225 99.8539 36.655C100.088 36.079 100.409 35.575 100.817 35.143C101.231 34.705 101.711 34.363 102.257 34.117C102.803 33.871 103.385 33.748 104.003 33.748C104.831 33.748 105.584 33.961 106.262 34.387C106.946 34.813 107.489 35.386 107.891 36.106C108.299 36.826 108.503 37.624 108.503 38.5C108.503 39.154 108.386 39.766 108.152 40.336C107.918 40.906 107.594 41.41 107.18 41.848C106.772 42.28 106.295 42.619 105.749 42.865C105.209 43.111 104.627 43.234 104.003 43.234ZM104.003 41.038C104.441 41.038 104.834 40.921 105.182 40.687C105.53 40.453 105.803 40.144 106.001 39.76C106.205 39.376 106.307 38.956 106.307 38.5C106.307 38.032 106.202 37.606 105.992 37.222C105.788 36.832 105.509 36.523 105.155 36.295C104.807 36.061 104.423 35.944 104.003 35.944C103.571 35.944 103.181 36.061 102.833 36.295C102.485 36.529 102.209 36.841 102.005 37.231C101.801 37.621 101.699 38.044 101.699 38.5C101.699 38.974 101.804 39.403 102.014 39.787C102.224 40.171 102.503 40.477 102.851 40.705C103.205 40.927 103.589 41.038 104.003 41.038ZM109.913 43L109.904 34H112.1L112.109 34.801C112.415 34.477 112.781 34.222 113.207 34.036C113.633 33.844 114.092 33.748 114.584 33.748C114.914 33.748 115.244 33.796 115.574 33.892L114.71 36.106C114.482 36.016 114.254 35.971 114.026 35.971C113.672 35.971 113.348 36.058 113.054 36.232C112.766 36.4 112.535 36.631 112.361 36.925C112.193 37.213 112.109 37.534 112.109 37.888V43H109.913ZM120.122 43.234C119.294 43.234 118.538 43.021 117.854 42.595C117.176 42.169 116.633 41.596 116.225 40.876C115.823 40.156 115.622 39.361 115.622 38.491C115.622 37.837 115.739 37.225 115.973 36.655C116.207 36.079 116.528 35.575 116.936 35.143C117.35 34.705 117.83 34.363 118.376 34.117C118.922 33.871 119.504 33.748 120.122 33.748C120.824 33.748 121.466 33.898 122.048 34.198C122.636 34.492 123.134 34.897 123.542 35.413C123.95 35.929 124.247 36.517 124.433 37.177C124.619 37.837 124.661 38.527 124.559 39.247H117.98C118.064 39.583 118.202 39.886 118.394 40.156C118.586 40.42 118.829 40.633 119.123 40.795C119.417 40.951 119.75 41.032 120.122 41.038C120.506 41.044 120.854 40.954 121.166 40.768C121.484 40.576 121.748 40.318 121.958 39.994L124.199 40.516C123.833 41.314 123.287 41.968 122.561 42.478C121.835 42.982 121.022 43.234 120.122 43.234ZM117.908 37.6H122.336C122.27 37.24 122.129 36.916 121.913 36.628C121.703 36.334 121.442 36.1 121.13 35.926C120.818 35.752 120.482 35.665 120.122 35.665C119.762 35.665 119.429 35.752 119.123 35.926C118.817 36.094 118.556 36.325 118.34 36.619C118.13 36.907 117.986 37.234 117.908 37.6Z" fill="white"/>
<path fill-rule="evenodd" clip-rule="evenodd" d="M25.8801 19.8562C26.7692 18.8141 28.2576 18.0505 29.4977 18.0002C29.5993 17.9955 29.6901 18.0723 29.7015 18.1754C29.8451 19.4871 29.3697 20.9511 28.4292 22.0917C27.5354 23.1721 26.2269 23.8435 25.0143 23.8435C24.9293 23.8435 24.8442 23.8399 24.7603 23.8336C24.668 23.8259 24.5928 23.7554 24.5804 23.6631C24.386 22.1918 25.1237 20.7313 25.8801 19.8562ZM17.5168 38.9261C15.273 35.6864 13.9831 30.3429 16.0123 26.8222C17.0787 24.9667 19.0145 23.7945 21.0634 23.7645C21.0836 23.764 21.1038 23.7634 21.1251 23.7634C22.0054 23.7634 22.8369 24.0933 23.5712 24.3845L23.5726 24.385C24.1211 24.6028 24.5955 24.791 24.961 24.791C25.2851 24.791 25.7545 24.606 26.2983 24.3917L26.3032 24.3897C27.0944 24.0776 28.0784 23.6898 29.1059 23.6898C29.2376 23.6898 29.3688 23.696 29.4953 23.709C30.3699 23.7463 32.5426 24.0589 33.96 26.1332C33.9901 26.1773 34.001 26.2312 33.9906 26.2836C33.9797 26.3354 33.9486 26.381 33.904 26.4095L33.8849 26.422C33.4727 26.677 31.4192 28.0825 31.4456 30.7374C31.4741 34.0046 34.1767 35.2038 34.4847 35.3297C34.4873 35.3308 34.4987 35.336 34.4987 35.336C34.5899 35.378 34.6356 35.4816 34.6034 35.577L34.5967 35.5983C34.4297 36.1349 33.9336 37.5378 32.9444 38.9827C31.9967 40.3669 30.9225 41.9357 29.1733 41.9683C28.3575 41.9838 27.8051 41.7447 27.2689 41.5125L27.2644 41.5105L27.2612 41.5092C26.7173 41.2742 26.1543 41.031 25.2726 41.031C24.3441 41.031 23.7515 41.283 23.1791 41.5271C22.6695 41.7444 22.1423 41.9688 21.4123 41.9979C21.3822 41.9994 21.3527 42 21.3237 42C19.7709 42 18.6366 40.5463 17.5168 38.9261Z" fill="white"/>
<rect x="1" y="1" width="152" height="58" rx="7" stroke="white" stroke-opacity="0.32" stroke-width="2"/>
</svg>
