<svg width="154" height="60" viewBox="0 0 154 60" fill="none" xmlns="http://www.w3.org/2000/svg">
<path d="M49.534 14.6H50.578L53.638 23H52.744L52.09 21.2H48.028L47.374 23H46.48L49.534 14.6ZM48.334 20.36H51.778L50.056 15.632L48.334 20.36ZM56.8368 23H55.7688L53.5788 16.982H54.4728L56.3027 22.016L58.1328 16.982H59.0268L56.8368 23ZM64.7184 17H65.5584V23H64.7184L64.6884 21.884C64.4924 22.264 64.2184 22.572 63.8664 22.808C63.5144 23.04 63.0944 23.156 62.6064 23.156C62.1664 23.156 61.7544 23.074 61.3704 22.91C60.9864 22.742 60.6484 22.512 60.3564 22.22C60.0644 21.928 59.8364 21.59 59.6724 21.206C59.5084 20.822 59.4264 20.41 59.4264 19.97C59.4264 19.538 59.5064 19.132 59.6664 18.752C59.8304 18.372 60.0544 18.038 60.3384 17.75C60.6264 17.462 60.9584 17.238 61.3344 17.078C61.7144 16.914 62.1204 16.832 62.5524 16.832C63.0524 16.832 63.4884 16.952 63.8604 17.192C64.2324 17.428 64.5284 17.738 64.7484 18.122L64.7184 17ZM62.5884 22.34C63.0164 22.34 63.3844 22.236 63.6924 22.028C64.0004 21.816 64.2364 21.532 64.4004 21.176C64.5684 20.82 64.6524 20.428 64.6524 20C64.6524 19.56 64.5684 19.164 64.4004 18.812C64.2324 18.456 63.9944 18.174 63.6864 17.966C63.3784 17.758 63.0124 17.654 62.5884 17.654C62.1644 17.654 61.7764 17.76 61.4244 17.972C61.0764 18.18 60.7984 18.462 60.5904 18.818C60.3864 19.174 60.2844 19.568 60.2844 20C60.2844 20.436 60.3904 20.832 60.6024 21.188C60.8144 21.54 61.0944 21.82 61.4424 22.028C61.7944 22.236 62.1764 22.34 62.5884 22.34ZM66.7591 17H67.5991V23H66.7591V17ZM67.1851 15.95C67.0491 15.95 66.9331 15.906 66.8371 15.818C66.7451 15.726 66.6991 15.612 66.6991 15.476C66.6991 15.34 66.7451 15.228 66.8371 15.14C66.9331 15.048 67.0491 15.002 67.1851 15.002C67.3171 15.002 67.4291 15.048 67.5211 15.14C67.6171 15.228 67.6651 15.34 67.6651 15.476C67.6651 15.612 67.6191 15.726 67.5271 15.818C67.4351 15.906 67.3211 15.95 67.1851 15.95ZM69.0911 23V14H69.9311V23H69.0911ZM76.2614 17H77.1014V23H76.2614L76.2314 21.884C76.0354 22.264 75.7614 22.572 75.4094 22.808C75.0574 23.04 74.6374 23.156 74.1494 23.156C73.7094 23.156 73.2974 23.074 72.9134 22.91C72.5294 22.742 72.1914 22.512 71.8994 22.22C71.6074 21.928 71.3794 21.59 71.2154 21.206C71.0514 20.822 70.9694 20.41 70.9694 19.97C70.9694 19.538 71.0494 19.132 71.2094 18.752C71.3734 18.372 71.5974 18.038 71.8814 17.75C72.1694 17.462 72.5014 17.238 72.8774 17.078C73.2574 16.914 73.6634 16.832 74.0954 16.832C74.5954 16.832 75.0314 16.952 75.4034 17.192C75.7754 17.428 76.0714 17.738 76.2914 18.122L76.2614 17ZM74.1314 22.34C74.5594 22.34 74.9274 22.236 75.2354 22.028C75.5434 21.816 75.7794 21.532 75.9434 21.176C76.1114 20.82 76.1954 20.428 76.1954 20C76.1954 19.56 76.1114 19.164 75.9434 18.812C75.7754 18.456 75.5374 18.174 75.2294 17.966C74.9214 17.758 74.5554 17.654 74.1314 17.654C73.7074 17.654 73.3194 17.76 72.9674 17.972C72.6194 18.18 72.3414 18.462 72.1334 18.818C71.9294 19.174 71.8274 19.568 71.8274 20C71.8274 20.436 71.9334 20.832 72.1454 21.188C72.3574 21.54 72.6374 21.82 72.9854 22.028C73.3374 22.236 73.7194 22.34 74.1314 22.34ZM81.3601 16.832C81.9441 16.832 82.4741 16.974 82.9501 17.258C83.4301 17.542 83.8121 17.924 84.0961 18.404C84.3801 18.88 84.5221 19.41 84.5221 19.994C84.5221 20.43 84.4401 20.84 84.2761 21.224C84.1121 21.604 83.8841 21.94 83.5921 22.232C83.3041 22.52 82.9681 22.746 82.5841 22.91C82.2041 23.074 81.7961 23.156 81.3601 23.156C80.8641 23.156 80.4361 23.038 80.0761 22.802C79.7161 22.566 79.4321 22.258 79.2241 21.878V23H78.3841V14H79.2241V18.11C79.4321 17.73 79.7161 17.422 80.0761 17.186C80.4361 16.95 80.8641 16.832 81.3601 16.832ZM81.3541 22.334C81.7821 22.334 82.1701 22.23 82.5181 22.022C82.8661 21.81 83.1441 21.526 83.3521 21.17C83.5601 20.814 83.6641 20.422 83.6641 19.994C83.6641 19.554 83.5581 19.158 83.3461 18.806C83.1341 18.45 82.8521 18.168 82.5001 17.96C82.1521 17.752 81.7701 17.648 81.3541 17.648C80.9301 17.648 80.5621 17.754 80.2501 17.966C79.9421 18.178 79.7041 18.462 79.5361 18.818C79.3721 19.174 79.2901 19.566 79.2901 19.994C79.2901 20.43 79.3741 20.826 79.5421 21.182C79.7101 21.534 79.9481 21.814 80.2561 22.022C80.5681 22.23 80.9341 22.334 81.3541 22.334ZM85.4973 23V14H86.3373V23H85.4973ZM90.3756 23.156C89.8236 23.156 89.3196 23.014 88.8636 22.73C88.4116 22.446 88.0496 22.066 87.7776 21.59C87.5096 21.11 87.3756 20.58 87.3756 20C87.3756 19.56 87.4536 19.15 87.6096 18.77C87.7656 18.386 87.9796 18.05 88.2516 17.762C88.5276 17.47 88.8476 17.242 89.2116 17.078C89.5756 16.914 89.9636 16.832 90.3756 16.832C90.8196 16.832 91.2276 16.92 91.5996 17.096C91.9756 17.272 92.2976 17.518 92.5656 17.834C92.8376 18.15 93.0416 18.52 93.1776 18.944C93.3176 19.368 93.3756 19.826 93.3516 20.318H88.2636C88.3116 20.698 88.4316 21.038 88.6236 21.338C88.8196 21.638 89.0676 21.876 89.3676 22.052C89.6716 22.224 90.0076 22.312 90.3756 22.316C90.7756 22.316 91.1356 22.212 91.4556 22.004C91.7796 21.796 92.0396 21.51 92.2356 21.146L93.0876 21.344C92.8476 21.876 92.4856 22.312 92.0016 22.652C91.5176 22.988 90.9756 23.156 90.3756 23.156ZM88.2396 19.64H92.5056C92.4776 19.268 92.3636 18.928 92.1636 18.62C91.9676 18.308 91.7136 18.06 91.4016 17.876C91.0896 17.688 90.7476 17.594 90.3756 17.594C90.0036 17.594 89.6636 17.686 89.3556 17.87C89.0476 18.05 88.7956 18.296 88.5996 18.608C88.4036 18.916 88.2836 19.26 88.2396 19.64ZM99.9616 23.156C99.4096 23.156 98.9056 23.014 98.4496 22.73C97.9976 22.446 97.6356 22.066 97.3636 21.59C97.0956 21.11 96.9616 20.58 96.9616 20C96.9616 19.56 97.0396 19.15 97.1956 18.77C97.3516 18.386 97.5656 18.05 97.8376 17.762C98.1136 17.47 98.4336 17.242 98.7976 17.078C99.1616 16.914 99.5496 16.832 99.9616 16.832C100.514 16.832 101.016 16.974 101.468 17.258C101.924 17.542 102.286 17.924 102.554 18.404C102.826 18.884 102.962 19.416 102.962 20C102.962 20.436 102.884 20.844 102.728 21.224C102.572 21.604 102.356 21.94 102.08 22.232C101.808 22.52 101.49 22.746 101.126 22.91C100.766 23.074 100.378 23.156 99.9616 23.156ZM99.9616 22.316C100.37 22.316 100.736 22.21 101.06 21.998C101.388 21.782 101.646 21.498 101.834 21.146C102.026 20.794 102.122 20.412 102.122 20C102.122 19.58 102.026 19.194 101.834 18.842C101.642 18.486 101.382 18.202 101.054 17.99C100.73 17.778 100.366 17.672 99.9616 17.672C99.5536 17.672 99.1856 17.78 98.8576 17.996C98.5336 18.208 98.2756 18.49 98.0836 18.842C97.8956 19.194 97.8016 19.58 97.8016 20C97.8016 20.432 97.8996 20.824 98.0956 21.176C98.2916 21.524 98.5536 21.802 98.8816 22.01C99.2096 22.214 99.5696 22.316 99.9616 22.316ZM109.21 19.286V23H108.37V19.454C108.37 19.126 108.29 18.828 108.13 18.56C107.97 18.292 107.756 18.078 107.488 17.918C107.22 17.758 106.922 17.678 106.594 17.678C106.27 17.678 105.972 17.758 105.7 17.918C105.432 18.078 105.218 18.292 105.058 18.56C104.898 18.828 104.818 19.126 104.818 19.454V23H103.978V17H104.818V17.828C105.03 17.524 105.306 17.282 105.646 17.102C105.986 16.922 106.356 16.832 106.756 16.832C107.208 16.832 107.62 16.942 107.992 17.162C108.364 17.382 108.66 17.678 108.88 18.05C109.1 18.422 109.21 18.834 109.21 19.286Z" fill="white" fill-opacity="0.8"/>
<path d="M52.912 43.234C52.036 43.234 51.22 43.063 50.464 42.721C49.714 42.379 49.06 41.908 48.502 41.308C47.944 40.702 47.506 40.006 47.188 39.22C46.876 38.428 46.72 37.582 46.72 36.682C46.72 35.734 46.888 34.864 47.224 34.072C47.566 33.28 48.031 32.593 48.619 32.011C49.207 31.429 49.873 30.979 50.617 30.661C51.367 30.343 52.147 30.184 52.957 30.184C53.863 30.184 54.742 30.397 55.594 30.823C56.452 31.243 57.208 31.894 57.862 32.776L55.9 33.829C55.498 33.337 55.036 32.971 54.514 32.731C53.998 32.485 53.47 32.362 52.93 32.362C52.402 32.362 51.895 32.47 51.409 32.686C50.929 32.902 50.5 33.208 50.122 33.604C49.75 33.994 49.456 34.456 49.24 34.99C49.024 35.518 48.916 36.097 48.916 36.727C48.916 37.321 49.021 37.882 49.231 38.41C49.441 38.932 49.729 39.391 50.095 39.787C50.467 40.177 50.896 40.483 51.382 40.705C51.868 40.927 52.39 41.038 52.948 41.038C53.32 41.038 53.683 40.981 54.037 40.867C54.397 40.747 54.733 40.576 55.045 40.354C55.363 40.132 55.645 39.862 55.891 39.544C56.143 39.226 56.353 38.866 56.521 38.464H54.226V36.547H59.104C59.128 37.465 58.984 38.326 58.672 39.13C58.36 39.934 57.919 40.645 57.349 41.263C56.779 41.881 56.116 42.364 55.36 42.712C54.604 43.06 53.788 43.234 52.912 43.234ZM64.5927 43.234C63.7647 43.234 63.0087 43.021 62.3247 42.595C61.6467 42.169 61.1037 41.599 60.6957 40.885C60.2937 40.165 60.0927 39.37 60.0927 38.5C60.0927 37.84 60.2097 37.225 60.4437 36.655C60.6777 36.079 60.9987 35.575 61.4067 35.143C61.8207 34.705 62.3007 34.363 62.8467 34.117C63.3927 33.871 63.9747 33.748 64.5927 33.748C65.4207 33.748 66.1737 33.961 66.8517 34.387C67.5357 34.813 68.0787 35.386 68.4807 36.106C68.8887 36.826 69.0927 37.624 69.0927 38.5C69.0927 39.154 68.9757 39.766 68.7417 40.336C68.5077 40.906 68.1837 41.41 67.7697 41.848C67.3617 42.28 66.8847 42.619 66.3387 42.865C65.7987 43.111 65.2167 43.234 64.5927 43.234ZM64.5927 41.038C65.0307 41.038 65.4237 40.921 65.7717 40.687C66.1197 40.453 66.3927 40.144 66.5907 39.76C66.7947 39.376 66.8967 38.956 66.8967 38.5C66.8967 38.032 66.7917 37.606 66.5817 37.222C66.3777 36.832 66.0987 36.523 65.7447 36.295C65.3967 36.061 65.0127 35.944 64.5927 35.944C64.1607 35.944 63.7707 36.061 63.4227 36.295C63.0747 36.529 62.7987 36.841 62.5947 37.231C62.3907 37.621 62.2887 38.044 62.2887 38.5C62.2887 38.974 62.3937 39.403 62.6037 39.787C62.8137 40.171 63.0927 40.477 63.4407 40.705C63.7947 40.927 64.1787 41.038 64.5927 41.038ZM74.4892 43.234C73.6612 43.234 72.9052 43.021 72.2212 42.595C71.5432 42.169 71.0002 41.599 70.5922 40.885C70.1902 40.165 69.9892 39.37 69.9892 38.5C69.9892 37.84 70.1062 37.225 70.3402 36.655C70.5742 36.079 70.8952 35.575 71.3032 35.143C71.7172 34.705 72.1972 34.363 72.7432 34.117C73.2892 33.871 73.8712 33.748 74.4892 33.748C75.3172 33.748 76.0702 33.961 76.7482 34.387C77.4322 34.813 77.9752 35.386 78.3772 36.106C78.7852 36.826 78.9892 37.624 78.9892 38.5C78.9892 39.154 78.8722 39.766 78.6382 40.336C78.4042 40.906 78.0802 41.41 77.6662 41.848C77.2582 42.28 76.7812 42.619 76.2352 42.865C75.6952 43.111 75.1132 43.234 74.4892 43.234ZM74.4892 41.038C74.9272 41.038 75.3202 40.921 75.6682 40.687C76.0162 40.453 76.2892 40.144 76.4872 39.76C76.6912 39.376 76.7932 38.956 76.7932 38.5C76.7932 38.032 76.6882 37.606 76.4782 37.222C76.2742 36.832 75.9952 36.523 75.6412 36.295C75.2932 36.061 74.9092 35.944 74.4892 35.944C74.0572 35.944 73.6672 36.061 73.3192 36.295C72.9712 36.529 72.6952 36.841 72.4912 37.231C72.2872 37.621 72.1852 38.044 72.1852 38.5C72.1852 38.974 72.2902 39.403 72.5002 39.787C72.7102 40.171 72.9892 40.477 73.3372 40.705C73.6912 40.927 74.0752 41.038 74.4892 41.038ZM87.1037 34H89.2997V43.171C89.2997 43.819 89.1677 44.407 88.9037 44.935C88.6397 45.469 88.2797 45.925 87.8237 46.303C87.3677 46.687 86.8457 46.981 86.2577 47.185C85.6697 47.395 85.0517 47.5 84.4037 47.5C83.7737 47.5 83.1677 47.371 82.5857 47.113C82.0037 46.855 81.4877 46.501 81.0377 46.051C80.5937 45.607 80.2547 45.1 80.0207 44.53L82.0277 43.621C82.1477 43.951 82.3277 44.239 82.5677 44.485C82.8137 44.737 83.0957 44.932 83.4137 45.07C83.7317 45.214 84.0617 45.286 84.4037 45.286C84.7517 45.286 85.0847 45.238 85.4027 45.142C85.7267 45.046 86.0177 44.905 86.2757 44.719C86.5337 44.539 86.7347 44.317 86.8787 44.053C87.0287 43.795 87.1037 43.501 87.1037 43.171V41.902C86.8217 42.298 86.4677 42.619 86.0417 42.865C85.6157 43.111 85.1237 43.234 84.5657 43.234C83.9177 43.234 83.3117 43.111 82.7477 42.865C82.1837 42.619 81.6857 42.28 81.2537 41.848C80.8277 41.41 80.4917 40.906 80.2457 40.336C80.0057 39.766 79.8857 39.154 79.8857 38.5C79.8857 37.846 80.0057 37.234 80.2457 36.664C80.4917 36.094 80.8277 35.593 81.2537 35.161C81.6857 34.723 82.1837 34.381 82.7477 34.135C83.3117 33.889 83.9177 33.766 84.5657 33.766C85.1237 33.766 85.6157 33.889 86.0417 34.135C86.4677 34.375 86.8217 34.693 87.1037 35.089V34ZM84.5927 41.119C85.0547 41.119 85.4627 41.002 85.8167 40.768C86.1767 40.528 86.4587 40.21 86.6627 39.814C86.8667 39.412 86.9687 38.974 86.9687 38.5C86.9687 38.02 86.8637 37.582 86.6537 37.186C86.4497 36.79 86.1677 36.472 85.8077 36.232C85.4537 35.992 85.0487 35.872 84.5927 35.872C84.1427 35.872 83.7317 35.992 83.3597 36.232C82.9877 36.466 82.6907 36.781 82.4687 37.177C82.2467 37.573 82.1357 38.014 82.1357 38.5C82.1357 38.986 82.2467 39.427 82.4687 39.823C82.6907 40.219 82.9877 40.534 83.3597 40.768C83.7317 41.002 84.1427 41.119 84.5927 41.119ZM91.4648 43V29.5H93.6608V43H91.4648ZM99.6435 43.234C98.8155 43.234 98.0595 43.021 97.3755 42.595C96.6975 42.169 96.1545 41.596 95.7465 40.876C95.3445 40.156 95.1435 39.361 95.1435 38.491C95.1435 37.837 95.2605 37.225 95.4945 36.655C95.7285 36.079 96.0495 35.575 96.4575 35.143C96.8715 34.705 97.3515 34.363 97.8975 34.117C98.4435 33.871 99.0255 33.748 99.6435 33.748C100.346 33.748 100.988 33.898 101.57 34.198C102.158 34.492 102.656 34.897 103.064 35.413C103.472 35.929 103.769 36.517 103.955 37.177C104.141 37.837 104.183 38.527 104.081 39.247H97.5015C97.5855 39.583 97.7235 39.886 97.9155 40.156C98.1075 40.42 98.3505 40.633 98.6445 40.795C98.9385 40.951 99.2715 41.032 99.6435 41.038C100.028 41.044 100.376 40.954 100.688 40.768C101.006 40.576 101.27 40.318 101.48 39.994L103.721 40.516C103.355 41.314 102.809 41.968 102.083 42.478C101.357 42.982 100.544 43.234 99.6435 43.234ZM97.4295 37.6H101.858C101.792 37.24 101.651 36.916 101.435 36.628C101.225 36.334 100.964 36.1 100.652 35.926C100.34 35.752 100.004 35.665 99.6435 35.665C99.2835 35.665 98.9505 35.752 98.6445 35.926C98.3385 36.094 98.0775 36.325 97.8615 36.619C97.6515 36.907 97.5075 37.234 97.4295 37.6ZM110.08 43V30.4H114.58C115.264 30.4 115.882 30.571 116.434 30.913C116.992 31.255 117.433 31.714 117.757 32.29C118.081 32.866 118.243 33.499 118.243 34.189C118.243 34.897 118.075 35.539 117.739 36.115C117.409 36.685 116.965 37.141 116.407 37.483C115.849 37.819 115.24 37.987 114.58 37.987H112.276V43H110.08ZM112.276 35.791H114.346C114.658 35.791 114.943 35.713 115.201 35.557C115.459 35.401 115.663 35.191 115.813 34.927C115.969 34.663 116.047 34.369 116.047 34.045C116.047 33.715 115.969 33.418 115.813 33.154C115.663 32.89 115.459 32.68 115.201 32.524C114.943 32.368 114.658 32.29 114.346 32.29H112.276V35.791ZM119.889 43V29.5H122.085V43H119.889ZM130.893 34H133.089V43H130.893L130.794 41.884C130.548 42.286 130.221 42.613 129.813 42.865C129.411 43.111 128.934 43.234 128.382 43.234C127.716 43.234 127.092 43.108 126.51 42.856C125.928 42.604 125.415 42.256 124.971 41.812C124.533 41.368 124.188 40.855 123.936 40.273C123.69 39.691 123.567 39.067 123.567 38.401C123.567 37.759 123.684 37.156 123.918 36.592C124.158 36.028 124.491 35.533 124.917 35.107C125.343 34.681 125.835 34.348 126.393 34.108C126.951 33.868 127.551 33.748 128.193 33.748C128.787 33.748 129.318 33.88 129.786 34.144C130.26 34.408 130.662 34.744 130.992 35.152L130.893 34ZM128.328 41.119C128.796 41.119 129.21 41.002 129.57 40.768C129.93 40.534 130.212 40.219 130.416 39.823C130.62 39.421 130.722 38.98 130.722 38.5C130.722 38.014 130.62 37.573 130.416 37.177C130.212 36.775 129.927 36.457 129.561 36.223C129.201 35.989 128.79 35.872 128.328 35.872C127.866 35.872 127.443 35.992 127.059 36.232C126.681 36.466 126.378 36.781 126.15 37.177C125.928 37.573 125.817 38.014 125.817 38.5C125.817 38.986 125.931 39.427 126.159 39.823C126.387 40.219 126.69 40.534 127.068 40.768C127.452 41.002 127.872 41.119 128.328 41.119ZM140.565 34H142.896L137.973 47.5H135.642L137.271 43L134.031 34H136.434L138.369 39.994L140.565 34Z" fill="white"/>
<path d="M36.1825 29.1301L31.8106 26.6074L28.2148 30.0833L31.5009 33.26L36.1825 30.558C36.4403 30.4096 36.5944 30.1423 36.5944 29.8445C36.5944 29.5463 36.4403 29.2795 36.1825 29.1301Z" fill="white"/>
<path d="M31.0661 26.1803L26.2546 23.4031L15.7109 18L27.6202 29.5116L31.0661 26.1803Z" fill="white"/>
<path d="M15.8906 41.9995L26.2774 36.2777L30.7611 33.6898L27.6248 30.6577L15.8906 41.9995Z" fill="white"/>
<path d="M15.0109 18.4658L15 41.7145L27.0305 30.0844L15.0109 18.4658Z" fill="white"/>
<rect x="1" y="1" width="152" height="58" rx="7" stroke="white" stroke-opacity="0.32" stroke-width="2"/>
</svg>
